<?xml version="1.0" encoding="UTF-8" standalone="no"?>
<!-- Created with Inkscape (http://www.inkscape.org/) -->

<svg
   xmlns:dc="http://purl.org/dc/elements/1.1/"
   xmlns:cc="http://creativecommons.org/ns#"
   xmlns:rdf="http://www.w3.org/1999/02/22-rdf-syntax-ns#"
   xmlns:svg="http://www.w3.org/2000/svg"
   xmlns="http://www.w3.org/2000/svg"
   xmlns:xlink="http://www.w3.org/1999/xlink"
   xmlns:sodipodi="http://sodipodi.sourceforge.net/DTD/sodipodi-0.dtd"
   xmlns:inkscape="http://www.inkscape.org/namespaces/inkscape"
   width="86"
   height="86"
   id="svg2"
   version="1.1"
   inkscape:version="0.48.2 r9819"
   sodipodi:docname="harbour--fahrplan2.svg"
   inkscape:export-filename="C:\Users\Stephan\Documents\GitHub\fahrplan\data\sailfishos\harbour-fahrplan2.png"
   inkscape:export-xdpi="90"
   inkscape:export-ydpi="90">
  <defs
     id="defs4">
    <linearGradient
       id="linearGradient3789-6">
      <stop
         style="stop-color:#1e9bff;stop-opacity:1;"
         offset="0"
         id="stop3791-0" />
      <stop
         style="stop-color:#00c8de;stop-opacity:1;"
         offset="1"
         id="stop3793-4" />
    </linearGradient>
    <linearGradient
       inkscape:collect="always"
       xlink:href="#linearGradient3789-6"
       id="linearGradient3889"
       gradientUnits="userSpaceOnUse"
       gradientTransform="matrix(1.0000117,0,0,1,-3.51e-6,4)"
       x1="85.999001"
       y1="86"
       x2="11.999863"
       y2="13" />
  </defs>
  <sodipodi:namedview
     id="base"
     pagecolor="#ffffff"
     bordercolor="#666666"
     borderopacity="1.0"
     inkscape:pageopacity="0.0"
     inkscape:pageshadow="2"
     inkscape:zoom="7.9999999"
     inkscape:cx="45.681072"
     inkscape:cy="35.008368"
     inkscape:document-units="px"
     inkscape:current-layer="layer2"
     showgrid="true"
     inkscape:window-width="2560"
     inkscape:window-height="1388"
     inkscape:window-x="-8"
     inkscape:window-y="-8"
     inkscape:window-maximized="1"
     inkscape:snap-bbox="true"
     inkscape:snap-global="false">
    <inkscape:grid
       type="xygrid"
       id="grid2985"
       empspacing="5"
       visible="false"
       enabled="true"
       snapvisiblegridlinesonly="true" />
  </sodipodi:namedview>
  <metadata
     id="metadata7">
    <rdf:RDF>
      <cc:Work
         rdf:about="">
        <dc:format>image/svg+xml</dc:format>
        <dc:type
           rdf:resource="http://purl.org/dc/dcmitype/StillImage" />
        <dc:title></dc:title>
      </cc:Work>
    </rdf:RDF>
  </metadata>
  <g
     inkscape:groupmode="layer"
     id="layer2"
     inkscape:label="Ebene"
     style="display:inline"
     transform="translate(0,-4)">
    <path
       inkscape:connector-curvature="0"
       style="fill:url(#linearGradient3889);fill-opacity:1"
       id="path11"
       d="M 43.0005,4.3 C 19.417224,4.3 0.3,23.418 0.3,47 c 0,0.408 0,41.277 0,41.277 0,0.786 0.63700745,1.423 1.4230166,1.423 H 84.276983 c 0.786009,0 1.423016,-0.637 1.423016,-1.423 0,0 0,-40.908 0,-41.277 C 85.700999,23.418 66.583776,4.3 43.0005,4.3 z" />
    <g
       id="g3816"
       transform="translate(5.0000001e-7,0.48189497)">
      <path
         inkscape:connector-curvature="0"
         style="fill:#ffffff;fill-opacity:1;stroke:none"
         id="rect163652"
         d="M 27.650529,22.6305 C 23.402733,22.6305 20,25.639205 20,29.395113 l 0,40.416423 c 0,3.755911 3.402733,6.793158 7.650529,6.793158 l 30.666662,0 c 4.247794,0 7.682808,-3.037247 7.682808,-6.793158 l 0,-40.416423 c 0,-3.755908 -3.435014,-6.764613 -7.682808,-6.764613 l -30.666662,0 z m 8.522103,2.511756 13.912982,0 c 1.887908,0 3.421753,0.811966 3.421753,1.855273 l 0,3.025524 c 0,1.043305 -1.533845,1.883817 -3.421753,1.883817 l -13.912982,0 c -1.887909,0 -3.421754,-0.840512 -3.421754,-1.883817 l 0,-3.025524 c 0,-1.043307 1.533845,-1.855273 3.421754,-1.855273 z m -9.038595,9.533253 30.828067,0 c 1.766542,0 3.19579,0.840509 3.19579,1.883816 l 0,13.044 c 0,1.043309 -1.429248,1.883817 -3.19579,1.883817 l -30.828067,0 c -1.766542,0 -3.19579,-0.840508 -3.19579,-1.883817 l 0,-13.044 c 0,-1.043307 1.429248,-1.883816 3.19579,-1.883816 z m -0.871579,28.428501 2.453334,0 c 1.445353,0 2.614737,0.775077 2.614737,1.741103 l 0,2.797183 c 0,0.966024 -1.169384,1.7411 -2.614737,1.7411 l -2.453334,0 c -1.445353,0 -2.614738,-0.775076 -2.614738,-1.7411 l 0,-2.797183 c 0,-0.966026 1.169385,-1.741103 2.614738,-1.741103 z m 30.117892,0 2.453333,0 c 1.445353,0 2.582455,0.775077 2.582455,1.741103 l 0,2.797183 c 0,0.966024 -1.137102,1.7411 -2.582455,1.7411 l -2.453333,0 c -1.445354,0 -2.614736,-0.775076 -2.614736,-1.7411 l 0,-2.797183 c 0,-0.966026 1.169382,-1.741103 2.614736,-1.741103 z" />
      <g
         id="text163672"
         style="font-size:45.0760498px;font-style:normal;font-weight:normal;line-height:125%;letter-spacing:0px;word-spacing:0px;fill:#ffffff;fill-opacity:1;stroke:none;font-family:Sans"
         transform="matrix(1.4253896,0,0,0.70156258,0,4)">
        <path
           inkscape:connector-curvature="0"
           id="path3793"
           style="fill:#ffffff;-inkscape-font-specification:Sans"
           d="m 15.156953,121.469 12.391512,-32.26635 4.600046,0 13.205874,32.26635 -4.864164,0 -3.763674,-9.77234 -13.492001,0 -3.543576,9.77234 z m 9.310141,-13.24989 10.938866,0 -3.367498,-8.935976 c -1.027139,-2.714516 -1.790145,-4.94484 -2.289018,-6.690977 -0.410864,2.068947 -0.990454,4.123192 -1.738774,6.162742 z" />
      </g>
    </g>
  </g>
</svg>
