<?xml version="1.0" encoding="utf-8"?>
<!-- Generator: Adobe Illustrator 13.0.0, SVG Export Plug-In . SVG Version: 6.00 Build 14948)  -->
<!DOCTYPE svg PUBLIC "-//W3C//DTD SVG 1.1//EN" "http://www.w3.org/Graphics/SVG/1.1/DTD/svg11.dtd">
<svg version="1.1" id="Fahrplan" xmlns="http://www.w3.org/2000/svg" xmlns:xlink="http://www.w3.org/1999/xlink" x="0px" y="0px"
	 width="800px" height="800px" viewBox="0 0 800 800" enable-background="new 0 0 800 800" xml:space="preserve">
<linearGradient id="Background_1_" gradientUnits="userSpaceOnUse" x1="639.5684" y1="-75.4683" x2="-40.3624" y2="604.4706" gradientTransform="matrix(1 0 0 -1 102.28 778.2207)">
	<stop  offset="0" style="stop-color:#1D3A6E"/>
	<stop  offset="0.2169" style="stop-color:#1F3D71"/>
	<stop  offset="0.3819" style="stop-color:#23477A"/>
	<stop  offset="0.5292" style="stop-color:#2B578A"/>
	<stop  offset="0.625" style="stop-color:#336699"/>
	<stop  offset="1" style="stop-color:#4D99CC"/>
</linearGradient>
<path id="Background" inkscape:connector-curvature="0" fill="url(#Background_1_)" d="M400,5C181.844,5,5,181.853,5,400
	c0,3.776,0,381.838,0,381.838C5,789.101,10.895,795,18.167,795h763.671c7.264,0,13.162-5.899,13.162-13.162c0,0,0-378.423,0-381.838
	C795.009,181.853,618.164,5,400,5z"/>
<g id="Glyph">
	<path id="Train" fill="#FFFFFF" d="M266.522,210.513c-36.941,0-66.522,26.161-66.522,58.823V620.76
		c0,32.643,29.581,59.062,66.522,59.062h266.659c36.926,0,66.818-26.419,66.818-59.062V269.336
		c0-32.662-29.893-58.823-66.818-58.823H266.522z M340.62,232.349h120.987c16.406,0,29.743,7.076,29.743,16.14v26.316
		c0,9.063-13.337,16.367-29.743,16.367H340.62c-16.412,0-29.75-7.304-29.75-16.367v-26.328
		C310.87,239.425,324.208,232.349,340.62,232.349z M262.03,315.251h268.059c15.358,0,27.802,7.31,27.802,16.379v113.408
		c0,9.068-12.443,16.387-27.802,16.387H262.03c-15.351,0-27.783-7.318-27.783-16.387V331.63
		C234.247,322.561,246.679,315.251,262.03,315.251z M254.453,562.422h21.339c12.567,0,22.724,6.753,22.724,15.144v24.32
		c0,8.393-10.173,15.146-22.724,15.146h-21.339c-12.572,0-22.745-6.753-22.745-15.146v-24.32
		C231.708,569.175,241.881,562.422,254.453,562.422z M516.328,562.422h21.352c12.576,0,22.455,6.753,22.455,15.144v24.32
		c0,8.393-9.879,15.146-22.455,15.146h-21.352c-12.58,0-22.713-6.753-22.713-15.146v-24.32
		C493.615,569.175,503.748,562.422,516.328,562.422z"/>
	<path id="Rail" fill="#FFFFFF" d="M587.924,789.487h-59.721L481.81,729.63H314.343l-44.192,59.857h-55.927L367.807,592.68h57.013
		L587.924,789.487z M466.283,708.949l-70.379-91.305l-67.093,91.305H466.283z"/>
</g>
</svg>
