<?xml version="1.0" encoding="UTF-8" ?>
<!DOCTYPE svg PUBLIC "-//W3C//DTD SVG 1.1//EN" "http://www.w3.org/Graphics/SVG/1.1/DTD/svg11.dtd">
<svg width="24pt" height="24pt" viewBox="0 0 24 24" version="1.1" xmlns="http://www.w3.org/2000/svg">
<g id="#000000ff">
<path fill="#000000" opacity="1.00" d=" M 4.88 2.86 C 7.03 0.74 10.29 0.97 13.07 0.97 C 15.41 0.98 18.08 1.37 19.57 3.38 C 21.59 6.16 21.04 9.85 20.87 13.06 C 19.82 17.69 15.78 20.76 12.02 23.24 C 8.27 20.77 4.20 17.73 3.15 13.11 C 2.86 9.70 2.35 5.60 4.88 2.86 M 10.44 5.50 C 7.50 6.60 7.46 11.32 10.38 12.48 C 12.77 13.66 15.98 11.75 15.80 9.02 C 16.00 6.30 12.84 4.36 10.44 5.50 Z" />
</g>
</svg>
