<?xml version="1.0" encoding="UTF-8"?>
<!DOCTYPE svg PUBLIC "-//W3C//DTD SVG 1.1 Tiny//EN" "http://www.w3.org/Graphics/SVG/1.1/DTD/svg11-tiny.dtd">
<svg baseProfile="tiny" height="30px" version="1.1" viewBox="-0.001 0 30 30" width="30px" x="0px" xmlns="http://www.w3.org/2000/svg" xmlns:xlink="http://www.w3.org/1999/xlink" y="0px">
<path d="M23.261,19.925l-4.927-4.924l4.928-4.931c0.955-0.952,0.988-2.486,0.07-3.406  c-0.914-0.915-2.449-0.881-3.404,0.073L15,11.666l-4.928-4.929c-0.955-0.954-2.487-0.988-3.404-0.07  c-0.918,0.917-0.885,2.448,0.07,3.406l4.928,4.928l-4.924,4.924c-0.959,0.957-0.989,2.491-0.074,3.407  c0.917,0.916,2.45,0.885,3.408-0.073l4.923-4.925l4.927,4.927c0.956,0.956,2.488,0.988,3.407,0.071  C24.25,22.416,24.217,20.882,23.261,19.925z" fill="#000000" fill-opacity="1" stroke-opacity="1"/>
<rect fill="none" height="30" width="30"/>
</svg>
