<?xml version="1.0" encoding="utf-8"?>
<!-- Generator: Adobe Illustrator 13.0.0, SVG Export Plug-In . SVG Version: 6.00 Build 14948)  -->
<!DOCTYPE svg PUBLIC "-//W3C//DTD SVG 1.1//EN" "http://www.w3.org/Graphics/SVG/1.1/DTD/svg11.dtd">
<svg version="1.1" id="Fahrplan" xmlns="http://www.w3.org/2000/svg" xmlns:xlink="http://www.w3.org/1999/xlink" x="0px" y="0px"
	 width="800px" height="800px" viewBox="0 0 800 800" enable-background="new 0 0 800 800" xml:space="preserve">
<g id="Background">
	<linearGradient id="Gradient_1_" gradientUnits="userSpaceOnUse" x1="400.0005" y1="800" x2="400.0005" y2="4.882813e-004">
		<stop  offset="0" style="stop-color:#1D3A6E"/>
		<stop  offset="0.2169" style="stop-color:#1F3D71"/>
		<stop  offset="0.3819" style="stop-color:#23477A"/>
		<stop  offset="0.5292" style="stop-color:#2B578A"/>
		<stop  offset="0.625" style="stop-color:#336699"/>
		<stop  offset="1" style="stop-color:#4D99CC"/>
	</linearGradient>
	<rect id="Gradient" fill="url(#Gradient_1_)" width="800" height="800"/>
	<rect id="Square_1_" display="none" fill="#336699" width="800" height="800"/>
</g>
<g id="Glyph">
	<path id="Train" fill="#FFFFFF" d="M286.543,153.936c-31.397,0-56.543,22.236-56.543,50v298.711
		c0,27.744,25.146,50.205,56.543,50.205h226.66c31.387,0,56.797-22.461,56.797-50.205V203.936c0-27.764-25.41-50-56.797-50H286.543z
		 M349.526,172.495h102.837c13.945,0,25.283,6.016,25.283,13.721v22.368c0,7.705-11.338,13.911-25.283,13.911H349.526
		c-13.951,0-25.288-6.206-25.288-13.911v-22.378C324.238,178.511,335.576,172.495,349.526,172.495z M282.724,242.964h227.852
		c13.057,0,23.633,6.211,23.633,13.921v96.396c0,7.71-10.576,13.931-23.633,13.931H282.724c-13.047,0-23.613-6.221-23.613-13.931
		v-96.396C259.111,249.175,269.677,242.964,282.724,242.964z M276.284,453.057h18.14c10.683,0,19.316,5.742,19.316,12.871v20.674
		c0,7.139-8.647,12.872-19.316,12.872h-18.14c-10.684,0-19.331-5.733-19.331-12.872v-20.674
		C256.953,458.799,265.601,453.057,276.284,453.057z M498.877,453.057h18.154c10.684,0,19.082,5.742,19.082,12.871v20.674
		c0,7.139-8.398,12.872-19.082,12.872h-18.154c-10.693,0-19.307-5.733-19.307-12.872v-20.674
		C479.57,458.799,488.184,453.057,498.877,453.057z"/>
	<path id="Rail" fill="#FFFFFF" d="M559.736,646.064h-50.762l-39.434-50.879H327.192l-37.563,50.879H242.09l130.547-167.285h48.457
		L559.736,646.064z M456.338,577.607L396.519,500l-57.031,77.607H456.338z"/>
</g>
</svg>
