<?xml version="1.0" encoding="UTF-8" standalone="no"?>
<!-- Created with Inkscape (http://www.inkscape.org/) -->

<svg
   xmlns:dc="http://purl.org/dc/elements/1.1/"
   xmlns:cc="http://creativecommons.org/ns#"
   xmlns:rdf="http://www.w3.org/1999/02/22-rdf-syntax-ns#"
   xmlns:svg="http://www.w3.org/2000/svg"
   xmlns="http://www.w3.org/2000/svg"
   xmlns:sodipodi="http://sodipodi.sourceforge.net/DTD/sodipodi-0.dtd"
   xmlns:inkscape="http://www.inkscape.org/namespaces/inkscape"
   version="1.1"
   width="40"
   height="40"
   id="svg3004"
   xml:space="preserve"
   inkscape:version="0.48.3.1 r9886"
   sodipodi:docname="icon-m-toolbar-train.svg"><sodipodi:namedview
     pagecolor="#ffffff"
     bordercolor="#666666"
     borderopacity="1"
     objecttolerance="10"
     gridtolerance="10"
     guidetolerance="10"
     inkscape:pageopacity="0"
     inkscape:pageshadow="2"
     inkscape:window-width="1272"
     inkscape:window-height="963"
     id="namedview4008"
     showgrid="false"
     inkscape:zoom="5.3953203"
     inkscape:cx="33.042103"
     inkscape:cy="18.829449"
     inkscape:window-x="0"
     inkscape:window-y="0"
     inkscape:window-maximized="1"
     inkscape:current-layer="svg3004" /><metadata
     id="metadata3010"><rdf:RDF><cc:Work
         rdf:about=""><dc:format>image/svg+xml</dc:format><dc:type
           rdf:resource="http://purl.org/dc/dcmitype/StillImage" /><dc:title></dc:title></cc:Work></rdf:RDF></metadata><defs
     id="defs3008" /><path
     style="fill:#000000;fill-opacity:1;fill-rule:nonzero;stroke:none"
     d="M 13.875 3.65625 C 11.001785 3.653005 8.8723374 5.953897 8.875 8.46875 L 8.875 26.28125 C 8.87234 28.717059 10.771719 30.690064 12.6875 31 L 6.96875 39.625 L 10.25 39.625 L 14.375 33.59375 L 20 33.59375 L 25.625 33.59375 L 29.75 39.625 L 33.03125 39.625 L 27.3125 31 C 29.225951 30.690064 31.125333 28.717059 31.125 26.28125 L 31.125 8.46875 C 31.125333 5.953897 28.995885 3.653005 26.125 3.65625 L 20.03125 3.65625 L 13.875 3.65625 z M 17.59375 4.6875 L 20 4.6875 L 22.40625 4.6875 C 22.846984 4.6887481 23.246921 5.0610968 23.25 5.5 L 23.25 6.90625 C 23.246921 7.340993 22.867785 7.72191 22.40625 7.71875 L 20 7.71875 L 17.59375 7.71875 C 17.138206 7.7219118 16.750749 7.340993 16.75 6.90625 L 16.75 5.5 C 16.750749 5.0610968 17.159007 4.6887481 17.59375 4.6875 z M 14.03125 8.6875 L 25.96875 8.6875 C 27.590987 8.6844215 28.47245 9.8270594 28.46875 11.15625 L 28.46875 14.375 C 28.485141 15.916362 27.341373 16.83965 25.96875 16.84375 L 20 16.84375 L 14.03125 16.84375 C 12.656297 16.839673 11.52085 15.916362 11.53125 14.375 L 11.53125 11.15625 C 11.533497 9.8270594 12.406684 8.68442 14.03125 8.6875 z M 13.75 24.0625 C 14.958968 24.0593 15.936501 25.01395 15.9375 26.21875 C 15.936501 27.427627 14.958968 28.405251 13.75 28.40625 C 12.545192 28.405251 11.559346 27.427627 11.5625 26.21875 C 11.5593 25.01395 12.545192 24.059338 13.75 24.0625 z M 26.1875 24.0625 C 27.397541 24.059338 28.375083 25.01395 28.375 26.21875 C 28.375083 27.427627 27.397541 28.405251 26.1875 28.40625 C 24.983782 28.405251 23.9979 27.427627 24 26.21875 C 23.997919 25.01395 24.983782 24.0593 26.1875 24.0625 z "
     id="path3016" /><path
     d="m 18.161184,3.1386261 c -0.75899,0.00175 -1.376866,-0.616295 -1.372872,-1.381193 -0.004,-0.76007224 0.613882,-1.37811453 1.372872,-1.38119309 0.76598,0.003079 1.384022,0.62112085 1.381193,1.38119309 0.0028,0.764898 -0.615213,1.3829403 -1.381193,1.381193"
     id="path3018"
     style="fill:#000000;fill-opacity:1;fill-rule:nonzero;stroke:none"
     inkscape:connector-curvature="0" /><path
     d="m 21.830498,3.1386261 c 0.764982,0.00175 1.382857,-0.616295 1.381193,-1.381193 0.0017,-0.76007224 -0.616211,-1.37811453 -1.381193,-1.38119309 -0.759989,0.003079 -1.378031,0.62112085 -1.381193,1.38119309 0.0032,0.764898 0.621204,1.3829403 1.381193,1.381193"
     id="path3020"
     style="fill:#000000;fill-opacity:1;fill-rule:nonzero;stroke:none"
     inkscape:connector-curvature="0" /></svg>