<?xml version="1.0" encoding="UTF-8" ?>
<!DOCTYPE svg PUBLIC "-//W3C//DTD SVG 1.1//EN" "http://www.w3.org/Graphics/SVG/1.1/DTD/svg11.dtd">
<svg width="40pt" height="40pt" viewBox="0 0 40 40" version="1.1" xmlns="http://www.w3.org/2000/svg">
<g id="#000000ff">
<path fill="#000000" opacity="1.00" d=" M 5.00 5.00 C 15.00 5.00 25.00 5.00 35.00 5.00 C 35.00 15.00 35.00 25.00 35.00 35.00 C 25.00 35.00 15.00 35.00 5.00 35.00 C 5.00 25.00 5.00 15.00 5.00 5.00 M 11.00 7.00 C 11.00 7.75 11.00 9.25 11.00 10.00 C 11.75 10.00 13.25 10.00 14.00 10.00 C 14.00 9.25 14.00 7.75 14.00 7.00 C 13.25 7.00 11.75 7.00 11.00 7.00 M 26.00 7.00 C 26.00 7.75 26.00 9.25 26.00 10.00 C 26.75 10.00 28.25 10.00 29.00 10.00 C 29.00 9.25 29.00 7.75 29.00 7.00 C 28.25 7.00 26.75 7.00 26.00 7.00 M 8.00 13.00 C 8.00 14.33 8.00 15.67 8.00 17.00 C 9.33 17.00 10.67 17.00 12.00 17.00 C 12.00 15.67 12.00 14.33 12.00 13.00 C 10.67 13.00 9.33 13.00 8.00 13.00 M 13.00 13.00 C 13.00 14.33 13.00 15.67 13.00 17.00 C 14.33 17.00 15.67 17.00 17.00 17.00 C 17.00 15.67 17.00 14.33 17.00 13.00 C 15.67 13.00 14.33 13.00 13.00 13.00 M 18.00 13.00 C 18.00 14.33 18.00 15.67 18.00 17.00 C 19.33 17.00 20.67 17.00 22.00 17.00 C 22.00 15.67 22.00 14.33 22.00 13.00 C 20.67 13.00 19.33 13.00 18.00 13.00 M 23.00 13.00 C 23.00 14.33 23.00 15.67 23.00 17.00 C 24.33 17.00 25.67 17.00 27.00 17.00 C 27.00 15.67 27.00 14.33 27.00 13.00 C 25.67 13.00 24.33 13.00 23.00 13.00 M 28.00 13.00 C 28.00 14.33 28.00 15.67 28.00 17.00 C 29.33 17.00 30.67 17.00 32.00 17.00 C 32.00 15.67 32.00 14.33 32.00 13.00 C 30.67 13.00 29.33 13.00 28.00 13.00 M 8.00 18.00 C 8.00 19.33 8.00 20.67 8.00 22.00 C 9.33 22.00 10.67 22.00 12.00 22.00 C 12.00 20.67 12.00 19.33 12.00 18.00 C 10.67 18.00 9.33 18.00 8.00 18.00 M 13.00 18.00 C 13.00 19.33 13.00 20.67 13.00 22.00 C 14.33 22.00 15.67 22.00 17.00 22.00 C 17.00 20.67 17.00 19.33 17.00 18.00 C 15.67 18.00 14.33 18.00 13.00 18.00 M 18.00 18.00 C 18.00 19.33 18.00 20.67 18.00 22.00 C 19.33 22.00 20.67 22.00 22.00 22.00 C 22.00 20.67 22.00 19.33 22.00 18.00 C 20.67 18.00 19.33 18.00 18.00 18.00 M 23.00 18.00 C 23.00 19.33 23.00 20.67 23.00 22.00 C 24.33 22.00 25.67 22.00 27.00 22.00 C 27.00 20.67 27.00 19.33 27.00 18.00 C 25.67 18.00 24.33 18.00 23.00 18.00 M 28.00 18.00 C 28.00 19.33 28.00 20.67 28.00 22.00 C 29.33 22.00 30.67 22.00 32.00 22.00 C 32.00 20.67 32.00 19.33 32.00 18.00 C 30.67 18.00 29.33 18.00 28.00 18.00 M 8.00 23.00 C 8.00 24.33 8.00 25.67 8.00 27.00 C 9.33 27.00 10.67 27.00 12.00 27.00 C 12.00 25.67 12.00 24.33 12.00 23.00 C 10.67 23.00 9.33 23.00 8.00 23.00 M 13.00 23.00 C 13.00 24.33 13.00 25.67 13.00 27.00 C 14.33 27.00 15.67 27.00 17.00 27.00 C 17.00 25.67 17.00 24.33 17.00 23.00 C 15.67 23.00 14.33 23.00 13.00 23.00 M 18.00 23.00 C 18.00 24.33 18.00 25.67 18.00 27.00 C 19.33 27.00 20.67 27.00 22.00 27.00 C 22.00 25.67 22.00 24.33 22.00 23.00 C 20.67 23.00 19.33 23.00 18.00 23.00 M 23.00 23.00 C 23.00 24.33 23.00 25.67 23.00 27.00 C 24.33 27.00 25.67 27.00 27.00 27.00 C 27.00 25.67 27.00 24.33 27.00 23.00 C 25.67 23.00 24.33 23.00 23.00 23.00 M 28.00 23.00 C 28.00 24.33 28.00 25.67 28.00 27.00 C 29.33 27.00 30.67 27.00 32.00 27.00 C 32.00 25.67 32.00 24.33 32.00 23.00 C 30.67 23.00 29.33 23.00 28.00 23.00 M 8.00 28.00 C 8.00 29.33 8.00 30.67 8.00 32.00 C 9.33 32.00 10.67 32.00 12.00 32.00 C 12.00 30.67 12.00 29.33 12.00 28.00 C 10.67 28.00 9.33 28.00 8.00 28.00 M 13.00 28.00 C 13.00 29.33 13.00 30.67 13.00 32.00 C 14.33 32.00 15.67 32.00 17.00 32.00 C 17.00 30.67 17.00 29.33 17.00 28.00 C 15.67 28.00 14.33 28.00 13.00 28.00 M 18.00 28.00 C 18.00 29.33 18.00 30.67 18.00 32.00 C 19.33 32.00 20.67 32.00 22.00 32.00 C 22.00 30.67 22.00 29.33 22.00 28.00 C 20.67 28.00 19.33 28.00 18.00 28.00 M 23.00 28.00 C 23.00 29.33 23.00 30.67 23.00 32.00 C 24.33 32.00 25.67 32.00 27.00 32.00 C 27.00 30.67 27.00 29.33 27.00 28.00 C 25.67 28.00 24.33 28.00 23.00 28.00 M 28.00 28.00 C 28.00 29.33 28.00 30.67 28.00 32.00 C 29.33 32.00 30.67 32.00 32.00 32.00 C 32.00 30.67 32.00 29.33 32.00 28.00 C 30.67 28.00 29.33 28.00 28.00 28.00 Z" />
</g>
</svg>
