<?xml version="1.0"?>
<!-- Converted with SVG Converter - Version 0.9.5 (Compiled Mon May 30 09:08:51 2011) - Copyright (C) 2011 Nokia -->
<svg xmlns="http://www.w3.org/2000/svg" width="96px" x="0px" version="1.1" y="0px" height="96px" viewBox="0 0 96 96" xmlns:xlink="http://www.w3.org/1999/xlink" baseProfile="tiny" xml:space="preserve">
 <rect width="96" fill="none" height="96" id="BOUNDING_BOX_1_"/>
 <path stroke-opacity="0.4" fill-opacity="0.4" id="SHADOW_1_" d="M88.023,49c0,29.633-10.364,40-40,40c-29.635,0-40-10.367-40-40c0-29.634,10.366-40,40-40&#xd;&#xa;&#x9;C77.659,9,88.023,19.365,88.023,49z"/>
 <g>
  <g>
   <linearGradient id="SVGID_1_" y1="96" x1="48.0005" y2="5.035400e-004" gradientUnits="userSpaceOnUse" x2="48.0005">
    <stop offset="0" style="stop-color:#1D3A6E"/>
    <stop offset="0.2169" style="stop-color:#1F3D71"/>
    <stop offset="0.3819" style="stop-color:#23477A"/>
    <stop offset="0.5292" style="stop-color:#2B578A"/>
    <stop offset="0.625" style="stop-color:#336699"/>
    <stop offset="1" style="stop-color:#35A5D7"/>
   </linearGradient>
   <path fill="url(#SVGID_1_)" d="M48,87.979c29.633,0,39.997-10.365,40-39.989C87.997,18.363,77.632,8,48,8S8.003,18.363,8,47.989&#xd;&#xa;&#x9;&#x9;&#x9;C8.003,77.613,18.369,87.979,48,87.979z"/>
  </g>
 </g>
 <path stroke-opacity="0.05" fill-opacity="0.05" d="M67.495,59.266v-29.87c0-4.134-3.668-7.497-8.176-7.497H36.652c-4.494,0-8.147,3.363-8.147,7.497v29.87&#xd;&#xa;&#x9;c0,3.477,2.499,6.418,6.051,7.269l-4.314,5.531c-0.601,0.766-0.71,1.801-0.283,2.63c0.421,0.869,1.281,1.407,2.247,1.407h4.755&#xd;&#xa;&#x9;c0.791,0,1.543-0.377,2.012-1.011l3.014-4.077h11.737l3.2,4.125c0.473,0.612,1.192,0.963,1.975,0.963h5.075&#xd;&#xa;&#x9;c0.964,0,1.851-0.561,2.259-1.428c0.411-0.862,0.283-1.908-0.33-2.667l-4.53-5.468C64.919,65.687,67.495,62.692,67.495,59.266z&#xd;&#xa;&#x9; M53.278,28.756H42.911v-0.01h10.365L53.278,28.756z M58.932,43.225H36.404L36.4,35.793h22.525L58.932,43.225z"/>
 <path stroke-opacity="0.07" fill-opacity="0.07" d="M66.997,59.265v-29.87c0-3.86-3.443-6.998-7.679-6.998H36.652c-4.219,0-7.649,3.138-7.649,6.998v29.87&#xd;&#xa;&#x9;c0,3.516,2.767,6.41,6.451,6.932l-4.819,6.179c-0.481,0.615-0.565,1.444-0.225,2.103c0.334,0.695,1.021,1.126,1.797,1.126h4.755&#xd;&#xa;&#x9;c0.633,0,1.233-0.301,1.609-0.809l3.163-4.278H53.97l3.35,4.317c0.378,0.489,0.953,0.77,1.578,0.77h5.077&#xd;&#xa;&#x9;c0.771,0,1.479-0.449,1.806-1.143c0.33-0.693,0.227-1.528-0.263-2.133l-5.072-6.123C64.138,65.703,66.997,62.764,66.997,59.265z&#xd;&#xa;&#x9; M53.779,29.192c-0.136,0.033-0.315,0.062-0.54,0.062H42.953c-0.214,0-0.394-0.024-0.536-0.058l-0.008-0.893&#xd;&#xa;&#x9;c0.136-0.031,0.318-0.058,0.544-0.058h10.287c0.21,0,0.39,0.023,0.534,0.054L53.779,29.192z M59.618,56.95h-1.665l-0.002-0.644&#xd;&#xa;&#x9;h1.664L59.618,56.95z M37.378,56.307v0.644h-1.689v-0.644H37.378z M35.901,35.328c0.099-0.019,0.221-0.033,0.37-0.033h22.786&#xd;&#xa;&#x9;c0.143,0,0.264,0.015,0.367,0.035l0.006,8.359c-0.099,0.021-0.223,0.035-0.373,0.035H36.271c-0.143,0-0.264-0.015-0.365-0.033&#xd;&#xa;&#x9;L35.901,35.328z"/>
 <path stroke-opacity="0.1" fill-opacity="0.1" d="M66.498,59.266v-29.87c0-3.585-3.22-6.5-7.179-6.5H36.653c-3.942,0-7.15,2.915-7.15,6.5v29.87&#xd;&#xa;&#x9;c0,3.521,3.08,6.399,6.913,6.513l-5.386,6.906c-0.359,0.458-0.423,1.083-0.167,1.576c0.25,0.522,0.765,0.844,1.345,0.844h4.755&#xd;&#xa;&#x9;c0.475,0,0.926-0.227,1.207-0.606l3.311-4.48h12.738l3.497,4.512c0.284,0.367,0.718,0.575,1.184,0.575h5.077&#xd;&#xa;&#x9;c0.577,0,1.109-0.338,1.354-0.858c0.247-0.521,0.171-1.146-0.196-1.599l-5.691-6.867C63.344,65.723,66.498,62.822,66.498,59.266z&#xd;&#xa;&#x9; M54.28,29.542c-0.172,0.086-0.524,0.212-1.042,0.212H42.953c-0.485,0-0.837-0.109-1.034-0.192l-0.012-1.611&#xd;&#xa;&#x9;c0.173-0.085,0.52-0.205,1.046-0.205h10.286c0.48,0,0.823,0.099,1.031,0.184L54.28,29.542z M35.627,57.45&#xd;&#xa;&#x9;c-0.194,0-0.338-0.035-0.435-0.069l-0.004-1.5c0.095-0.037,0.241-0.074,0.439-0.074h1.813c0.194,0,0.338,0.035,0.435,0.07&#xd;&#xa;&#x9;l0.004,1.499c-0.095,0.037-0.241,0.074-0.439,0.074H35.627z M35.407,44.059l-0.004-9.089c0.149-0.074,0.442-0.173,0.869-0.173&#xd;&#xa;&#x9;h22.787c0.4,0,0.697,0.091,0.866,0.163l0.006,9.087c-0.15,0.077-0.443,0.178-0.872,0.178H36.271&#xd;&#xa;&#x9;C35.871,44.224,35.574,44.133,35.407,44.059z M57.45,55.881c0.096-0.037,0.242-0.074,0.438-0.074h1.813&#xd;&#xa;&#x9;c0.184,0,0.322,0.033,0.412,0.065l0.005,1.509c-0.085,0.032-0.221,0.069-0.417,0.069h-1.813c-0.191,0-0.336-0.035-0.433-0.069&#xd;&#xa;&#x9;L57.45,55.881z"/>
 <path stroke-opacity="0.15" fill-opacity="0.15" d="M66,59.266V29.395c0-3.309-2.997-6-6.681-6H36.653c-3.667,0-6.65,2.692-6.65,6v29.871&#xd;&#xa;&#x9;c0,3.318,2.983,6.019,6.65,6.019h0.784l-6.015,7.709c-0.237,0.303-0.281,0.72-0.111,1.052c0.169,0.347,0.514,0.561,0.897,0.561&#xd;&#xa;&#x9;h4.755c0.315,0,0.617-0.15,0.804-0.404l3.459-4.684h13.236l3.646,4.705c0.189,0.243,0.479,0.383,0.79,0.383h5.076&#xd;&#xa;&#x9;c0.386,0,0.74-0.225,0.903-0.573c0.165-0.349,0.113-0.765-0.132-1.064l-6.37-7.684h0.943C63.003,65.284,66,62.584,66,59.266z&#xd;&#xa;&#x9; M43.922,65.761l0.349-0.477h6.964l0.367,0.477H43.922z M54.781,29.78c-0.077,0.138-0.632,0.473-1.543,0.473H42.953&#xd;&#xa;&#x9;c-0.914,0-1.467-0.334-1.531-0.394l-0.017-2.152c0.068-0.117,0.584-0.46,1.547-0.46h10.285c0.963,0,1.477,0.343,1.528,0.375&#xd;&#xa;&#x9;L54.781,29.78z M34.689,55.631c0.042-0.095,0.372-0.324,0.939-0.324h1.813c0.567,0,0.897,0.229,0.935,0.287l0.004,2.029&#xd;&#xa;&#x9;c-0.041,0.095-0.371,0.326-0.938,0.326h-1.813c-0.567,0-0.897-0.231-0.935-0.289L34.689,55.631z M34.902,34.733&#xd;&#xa;&#x9;c0.058-0.124,0.553-0.437,1.37-0.437h22.785c0.817,0,1.314,0.313,1.366,0.392l0.006,9.596c-0.058,0.124-0.555,0.439-1.372,0.439&#xd;&#xa;&#x9;H36.272c-0.817,0-1.312-0.315-1.364-0.394L34.902,34.733z M59.702,57.949h-1.814c-0.565,0-0.896-0.231-0.933-0.289l-0.004-2.029&#xd;&#xa;&#x9;c0.041-0.095,0.371-0.324,0.937-0.324h1.814c0.554,0,0.873,0.228,0.91,0.287l0.004,2.031C60.585,57.697,60.293,57.949,59.702,57.949&#xd;&#xa;&#x9;z"/>
 <path stroke-opacity="0.15" fill-opacity="0.15" d="M65.5,59.266V29.394c0-3.034-2.771-5.5-6.181-5.5H36.654c-3.393,0-6.152,2.466-6.152,5.5v29.872&#xd;&#xa;&#x9;c0,3.044,2.76,5.519,6.152,5.519h1.807L31.815,73.3c-0.118,0.15-0.141,0.354-0.056,0.525c0.084,0.174,0.258,0.281,0.449,0.281h4.754&#xd;&#xa;&#x9;c0.159,0,0.307-0.074,0.402-0.202l3.607-4.886h13.736l3.794,4.896c0.096,0.122,0.242,0.192,0.396,0.192h5.075&#xd;&#xa;&#x9;c0.194,0,0.369-0.111,0.452-0.287c0.082-0.175,0.058-0.382-0.066-0.532l-7.047-8.503h2.007C62.729,64.784,65.5,62.31,65.5,59.266z&#xd;&#xa;&#x9; M42.936,66.261l1.085-1.477h7.46l1.138,1.477H42.936z M55.267,27.622v2.236c0,0.363-0.792,0.893-2.029,0.893H42.952&#xd;&#xa;&#x9;c-1.237,0-2.029-0.53-2.029-0.893V27.62c0-0.354,0.792-0.873,2.029-0.873h10.285C54.475,26.748,55.267,27.266,55.267,27.622z&#xd;&#xa;&#x9; M34.195,57.661v-2.067c0-0.371,0.59-0.787,1.433-0.787h1.813c0.844,0,1.434,0.416,1.434,0.787v2.067&#xd;&#xa;&#x9;c0,0.371-0.59,0.787-1.434,0.787h-1.813C34.785,58.448,34.195,58.032,34.195,57.661z M34.41,44.33v-9.642&#xd;&#xa;&#x9;c0-0.421,0.796-0.891,1.862-0.891h22.786c1.065,0,1.864,0.47,1.864,0.891v9.642c0,0.42-0.799,0.893-1.864,0.893H36.272&#xd;&#xa;&#x9;C35.206,45.223,34.41,44.75,34.41,44.33z M61.111,55.594v2.067c0,0.371-0.579,0.787-1.408,0.787h-1.815&#xd;&#xa;&#x9;c-0.844,0-1.432-0.416-1.432-0.787v-2.067c0-0.371,0.588-0.787,1.432-0.787h1.815C60.532,54.807,61.111,55.223,61.111,55.594z"/>
 <path fill="#FFFFFF" id="Train_1_" d="M36.654,23.394c-3.14,0-5.654,2.224-5.654,5v29.871c0,2.774,2.515,5.021,5.654,5.021h22.665&#xd;&#xa;&#x9;c3.139,0,5.681-2.246,5.681-5.021V28.394c0-2.776-2.542-5-5.681-5H36.654z M42.952,25.25h10.284c1.395,0,2.528,0.602,2.528,1.372&#xd;&#xa;&#x9;v2.237c0,0.771-1.134,1.392-2.528,1.392H42.952c-1.395,0-2.528-0.621-2.528-1.392v-2.238C40.424,25.851,41.558,25.25,42.952,25.25z&#xd;&#xa;&#x9; M36.273,32.297h22.785c1.307,0,2.363,0.621,2.363,1.391v9.641c0,0.771-1.057,1.393-2.363,1.393H36.273&#xd;&#xa;&#x9;c-1.305,0-2.362-0.622-2.362-1.393v-9.641C33.911,32.917,34.968,32.297,36.273,32.297z M35.628,53.307h1.814&#xd;&#xa;&#x9;c1.068,0,1.932,0.573,1.932,1.287v2.066c0,0.714-0.865,1.287-1.932,1.287h-1.814c-1.068,0-1.933-0.573-1.933-1.287v-2.066&#xd;&#xa;&#x9;C33.696,53.88,34.56,53.307,35.628,53.307z M57.889,53.307h1.814c1.068,0,1.908,0.573,1.908,1.287v2.066&#xd;&#xa;&#x9;c0,0.714-0.841,1.287-1.908,1.287h-1.814c-1.069,0-1.932-0.573-1.932-1.287v-2.066C55.957,53.88,56.819,53.307,57.889,53.307z"/>
 <path fill="#FFFFFF" id="Rail_1_" d="M63.974,72.606h-5.076l-3.943-5.088H40.719l-3.756,5.088h-4.753l13.054-16.729h4.846&#xd;&#xa;&#x9;L63.974,72.606z M53.634,65.76l-5.982-7.761l-5.703,7.761H53.634z"/>
 <linearGradient id="HIGHLIGHT_RIM_2_" y1="0" x1="47.9995" y2="144.6673" gradientUnits="userSpaceOnUse" x2="47.9995">
  <stop offset="0" style="stop-color:#FFFFFF"/>
  <stop offset="1" style="stop-color:#000000"/>
 </linearGradient>
 <path fill="url(#HIGHLIGHT_RIM_2_)" fill-opacity="0.25" id="HIGHLIGHT_RIM_1_" d="M48,7.979c-29.635,0-40,10.365-40,40&#xd;&#xa;&#x9;c0,29.633,10.365,40,40,40c29.637,0,40-10.367,40-40C88,18.344,77.637,7.979,48,7.979z M48,87.002c-29.159,0-39-9.848-39-39.024&#xd;&#xa;&#x9;C9,18.803,18.841,8.956,48,8.956c29.158,0,39,9.847,39,39.022C87,77.154,77.158,87.002,48,87.002z"/>
 <path fill="#FFFFFF" display="none" fill-opacity="0.05" id="SQUIRCLE_1_" d="M48,87.979c-29.635,0-40-10.367-40-40&#xd;&#xa;&#x9;c0-29.634,10.365-40,40-40c29.637,0,40,10.365,40,40C88,77.611,77.637,87.979,48,87.979z"/>
 <path stroke-opacity="0.02" fill-opacity="0.02" d="M9.478,64.25C13.244,81.519,24.624,87.979,48,87.979c23.378,0,34.756-6.46,38.522-23.729H9.478z"/>
 <path stroke-opacity="0.02" fill-opacity="0.02" d="M10.242,67.25C14.659,82.271,26.031,87.979,48,87.979c21.971,0,33.342-5.708,37.758-20.729H10.242z"/>
 <path stroke-opacity="0.02" fill-opacity="0.02" d="M11.258,70.25C16.284,83.041,27.555,87.979,48,87.979c20.446,0,31.717-4.938,36.742-17.729H11.258z"/>
 <path stroke-opacity="0.02" fill-opacity="0.02" d="M12.636,73.25C18.211,83.815,29.241,87.979,48,87.979c18.76,0,29.79-4.163,35.365-14.729H12.636z"/>
 <path stroke-opacity="0.02" fill-opacity="0.02" d="M13.797,75.25C19.685,84.348,30.47,87.979,48,87.979c17.531,0,28.316-3.631,34.203-12.729H13.797z"/>
 <path stroke-opacity="0.02" fill-opacity="0.02" d="M15.255,77.25C21.396,84.878,31.821,87.979,48,87.979c16.18,0,26.604-3.101,32.745-10.729H15.255z"/>
 <path fill-opacity="0.02" d="M17.059,79.25c6.305,6.177,16.254,8.729,30.941,8.729c14.688,0,24.638-2.552,30.942-8.729H17.059z"/>
 <path stroke-opacity="0.01" fill="#FFFFFF" fill-opacity="0.01" d="M48,8.979c-29.635,0-40,10.365-40,40c0,2.888,0.102,5.588,0.307,8.119l0.219,0.02h78.958&#xd;&#xa;&#x9;l0.21-0.019c0.205-2.531,0.307-5.23,0.307-8.12C88,19.344,77.637,8.979,48,8.979z"/>
 <path stroke-opacity="0.01" fill="#FFFFFF" fill-opacity="0.01" d="M48,7.979c-29.635,0-40,10.365-40,40c0,1.051,0.017,2.073,0.043,3.077l0.701,0.062H87.26&#xd;&#xa;&#x9;l0.697-0.063C87.983,50.051,88,49.029,88,47.978C88,18.344,77.637,7.979,48,7.979z"/>
 <path stroke-opacity="0.01" fill="#FFFFFF" fill-opacity="0.01" d="M8.965,46.116h78.072l0.941-0.084C87.521,17.897,76.975,7.979,48,7.979&#xd;&#xa;&#x9;c-28.973,0-39.521,9.919-39.978,38.054L8.965,46.116z"/>
 <path stroke-opacity="0.01" fill="#FFFFFF" fill-opacity="0.01" d="M9.186,41.116h77.628l0.961-0.086C86.147,16.713,75.187,7.979,48,7.979&#xd;&#xa;&#x9;c-27.185,0-38.147,8.735-39.775,33.053L9.186,41.116z"/>
 <path stroke-opacity="0.01" fill="#FFFFFF" fill-opacity="0.01" d="M9.186,37.116h77.628c0.201,0,0.397-0.036,0.594-0.066C84.854,15.753,73.648,7.979,48,7.979&#xd;&#xa;&#x9;c-25.646,0-36.854,7.774-39.408,29.072C8.789,37.08,8.984,37.116,9.186,37.116z"/>
 <path stroke-opacity="0.01" fill="#FFFFFF" fill-opacity="0.01" d="M48,7.979c-24.004,0-35.363,6.805-38.814,25.138h77.628C83.363,14.783,72.006,7.979,48,7.979&#xd;&#xa;&#x9;z"/>
 <path stroke-opacity="0.01" fill="#FFFFFF" fill-opacity="0.01" d="M84.074,29.67l1.6-0.376c0.083-0.02,0.158-0.058,0.239-0.084&#xd;&#xa;&#x9;C81.605,13.805,70.22,7.979,48,7.979c-22.218,0-33.604,5.827-37.913,21.231c0.081,0.026,0.156,0.064,0.239,0.084l1.599,0.376&#xd;&#xa;&#x9;c0.226,0.053,0.456,0.08,0.688,0.08h70.773C83.618,29.75,83.849,29.723,84.074,29.67z"/>
 <path stroke-opacity="0.01" fill="#FFFFFF" fill-opacity="0.01" d="M12.613,26.75h70.773l1.6-0.376C80.091,13.093,68.794,7.979,48,7.979&#xd;&#xa;&#x9;c-20.792,0-32.09,5.115-36.986,18.395L12.613,26.75z"/>
 <path stroke-opacity="0.01" fill="#FFFFFF" fill-opacity="0.01" d="M12.613,24.75h70.773c0.305,0,0.595-0.081,0.86-0.208C78.999,12.621,67.81,7.979,48,7.979&#xd;&#xa;&#x9;c-19.808,0-30.998,4.643-36.247,16.563C12.019,24.669,12.309,24.75,12.613,24.75z"/>
 <path stroke-opacity="0.01" fill="#FFFFFF" fill-opacity="0.01" d="M83.387,22.75C77.82,12.153,66.786,7.979,48,7.979c-18.785,0-29.819,4.174-35.387,14.771&#xd;&#xa;&#x9;H83.387z"/>
</svg>
