<?xml version="1.0" encoding="UTF-8" standalone="no"?>
<!-- Created with Inkscape (http://www.inkscape.org/) -->

<svg
   xmlns:dc="http://purl.org/dc/elements/1.1/"
   xmlns:cc="http://creativecommons.org/ns#"
   xmlns:rdf="http://www.w3.org/1999/02/22-rdf-syntax-ns#"
   xmlns:svg="http://www.w3.org/2000/svg"
   xmlns="http://www.w3.org/2000/svg"
   xmlns:xlink="http://www.w3.org/1999/xlink"
   version="1.1"
   width="80"
   height="80"
   id="svg2985">
  <metadata
     id="metadata3050">
    <rdf:RDF>
      <cc:Work
         rdf:about="">
        <dc:title></dc:title>
        <dc:format>image/svg+xml</dc:format>
        <dc:type
           rdf:resource="http://purl.org/dc/dcmitype/StillImage" />
      </cc:Work>
    </rdf:RDF>
  </metadata>
  <defs
     id="defs2987">
    <linearGradient
       x1="39.9995"
       y1="5.1816001"
       x2="39.9995"
       y2="58.801899"
       id="hicg_overlay_grad"
       gradientUnits="userSpaceOnUse">
      <stop
         id="stop2990"
         style="stop-color:#009eff;stop-opacity:1"
         offset="0" />
      <stop
         id="stop2992"
         style="stop-color:#000000;stop-opacity:1"
         offset="1" />
    </linearGradient>
    <filter
       color-interpolation-filters="sRGB"
       id="hicg_drop_shadow">
      <feOffset
         in="SourceGraphic"
         dx="0"
         dy="2"
         id="feOffset2995" />
      <feGaussianBlur
         stdDeviation="5"
         id="feGaussianBlur2997" />
      <feColorMatrix
         type="matrix"
         values="1 0 0 0 0  0 1 0 0 0  0 0 1 0 0  0 0 0 0.5 0"
         result="shadow"
         id="feColorMatrix2999" />
      <feBlend
         in2="shadow"
         mode="normal"
         in="SourceGraphic"
         id="feBlend3001" />
    </filter>
    <linearGradient
       x1="39.9995"
       y1="5.1816001"
       x2="39.9995"
       y2="58.801899"
       id="linearGradient3828"
       xlink:href="#hicg_overlay_grad"
       gradientUnits="userSpaceOnUse" />
    <linearGradient
       x1="36.83849"
       y1="-0.96219903"
       x2="38.487972"
       y2="80.687286"
       id="linearGradient3965"
       xlink:href="#hicg_overlay_grad"
       gradientUnits="userSpaceOnUse" />
  </defs>
  <path
     d="M 79,40 C 79,68.893 68.895,79 40,79 11.105,79 1,68.893 1,40 1,11.106 11.105,1 40,1 68.895,1 79,11.106 79,40 z"
     id="hicg_background"
     style="fill:#236eaf;fill-opacity:1" />
  <path
     d="M 39.999,1 C 11.105,1 1,11.106 1,40 1,68.893 11.105,79 39.999,79 68.896,79 79,68.893 79,40 79,11.106 68.896,1 39.999,1 z m 0,77.025 C 11.57,78.025 1.976,68.43 1.976,40 c 0,-28.429 9.595,-38.024 38.023,-38.024 28.43,0 38.024,9.596 38.024,38.024 0,28.43 -9.594,38.025 -38.024,38.025 z"
     id="hicg_highlight"
     style="opacity:0.25;fill:#fde9e9;fill-opacity:1" />
  <path
     d="M 78.977,40 C 78.977,68.893 68.877,79 40,79 11.123,79 1.023,68.893 1.023,40 1.023,11.106 11.123,1 40,1 68.877,1 78.977,11.106 78.977,40 z"
     id="hicg_overlay"
     style="opacity:0.4;fill:url(#linearGradient3828)" />
  <rect
     width="80"
     height="80"
     rx="5"
     ry="5"
     x="0"
     y="0"
     id="rect3189"
     style="fill:url(#linearGradient3965);fill-opacity:1;stroke:none" />
  <path
     d="m 29.609689,17.266108 c -2.844347,0 -5.122835,2.014645 -5.122835,4.529621 l 0,27.063055 c 0,2.514978 2.278488,4.548735 5.122835,4.548735 l 20.534562,0 c 2.844346,0 5.14445,-2.033757 5.14445,-4.548735 l 0,-27.063055 c 0,-2.514976 -2.300104,-4.529621 -5.14445,-4.529621 l -20.534562,0 z m 5.706446,1.681885 9.316208,0 c 1.264153,0 2.291224,0.543697 2.291224,1.242301 l 0,2.025907 c 0,0.698603 -1.027071,1.261414 -2.291224,1.261414 l -9.316208,0 c -1.264154,0 -2.291225,-0.562811 -2.291225,-1.261414 l 0,-2.025907 c 0,-0.698604 1.027071,-1.242301 2.291225,-1.242301 z m -6.052292,6.383518 20.64264,0 c 1.182886,0 2.139918,0.562809 2.139918,1.261413 l 0,8.734333 c 0,0.698605 -0.957032,1.261414 -2.139918,1.261414 l -20.64264,0 c -1.182886,0 -2.139918,-0.562809 -2.139918,-1.261414 l 0,-8.734333 c 0,-0.698604 0.957032,-1.261413 2.139918,-1.261413 z m -0.583614,19.035877 1.642766,0 c 0.967816,0 1.750842,0.518996 1.750842,1.165852 l 0,1.873009 c 0,0.646855 -0.783026,1.16585 -1.750842,1.16585 l -1.642766,0 c -0.967816,0 -1.750842,-0.518995 -1.750842,-1.16585 l 0,-1.873009 c 0,-0.646856 0.783026,-1.165852 1.750842,-1.165852 z m 20.167103,0 1.642765,0 c 0.967816,0 1.729226,0.518996 1.729226,1.165852 l 0,1.873009 c 0,0.646855 -0.76141,1.16585 -1.729226,1.16585 l -1.642765,0 c -0.967817,0 -1.750841,-0.518995 -1.750841,-1.16585 l 0,-1.873009 c 0,-0.646856 0.783024,-1.165852 1.750841,-1.165852 z"
     id="rect163652"
     style="fill:#ffffff;fill-opacity:1;stroke:none" />
  <text
     x="17.977051"
     y="88.165382"
     transform="scale(1.4253896,0.70156256)"
     id="text163672"
     xml:space="preserve"
     style="font-size:30.1831665px;font-style:normal;font-weight:normal;line-height:125%;letter-spacing:0px;word-spacing:0px;fill:#ffffff;fill-opacity:1;stroke:none;font-family:Sans"><tspan
       x="17.977051"
       y="88.165382"
       id="tspan163674"
       style="font-weight:normal;fill:#ffffff;-inkscape-font-specification:Sans">A</tspan></text>
</svg>
