<?xml version="1.0" encoding="UTF-8" standalone="no"?>
<!-- Created with Inkscape (http://www.inkscape.org/) -->

<svg
   xmlns:dc="http://purl.org/dc/elements/1.1/"
   xmlns:cc="http://creativecommons.org/ns#"
   xmlns:rdf="http://www.w3.org/1999/02/22-rdf-syntax-ns#"
   xmlns:svg="http://www.w3.org/2000/svg"
   xmlns="http://www.w3.org/2000/svg"
   xmlns:sodipodi="http://sodipodi.sourceforge.net/DTD/sodipodi-0.dtd"
   xmlns:inkscape="http://www.inkscape.org/namespaces/inkscape"
   width="96"
   height="96"
   id="svg4874"
   version="1.1"
   inkscape:version="0.91 r13725"
   viewBox="0 0 96 96.000001"
   sodipodi:docname="swap-with-via.svg">
  <defs
     id="defs4876" />
  <sodipodi:namedview
     id="base"
     pagecolor="#ffffff"
     bordercolor="#666666"
     borderopacity="1.0"
     inkscape:pageopacity="0.0"
     inkscape:pageshadow="2"
     inkscape:zoom="10.190483"
     inkscape:cx="68.618854"
     inkscape:cy="45.986678"
     inkscape:document-units="px"
     inkscape:current-layer="g4778"
     showgrid="true"
     showborder="true"
     fit-margin-top="0"
     fit-margin-left="0"
     fit-margin-right="0"
     fit-margin-bottom="0"
     inkscape:snap-bbox="true"
     inkscape:bbox-paths="true"
     inkscape:bbox-nodes="true"
     inkscape:snap-bbox-edge-midpoints="true"
     inkscape:snap-bbox-midpoints="true"
     inkscape:object-paths="true"
     inkscape:snap-intersection-paths="true"
     inkscape:object-nodes="true"
     inkscape:snap-smooth-nodes="true"
     inkscape:snap-midpoints="true"
     inkscape:snap-object-midpoints="true"
     inkscape:snap-center="true"
     showguides="true"
     inkscape:guide-bbox="true"
     inkscape:window-width="2880"
     inkscape:window-height="1752"
     inkscape:window-x="0"
     inkscape:window-y="48"
     inkscape:window-maximized="1">
    <inkscape:grid
       type="xygrid"
       id="grid5451"
       empspacing="8" />
    <sodipodi:guide
       orientation="1,0"
       position="8,-8.0000001"
       id="guide4063" />
    <sodipodi:guide
       orientation="1,0"
       position="4,-8.0000001"
       id="guide4065" />
    <sodipodi:guide
       orientation="0,1"
       position="-8,88.000001"
       id="guide4067" />
    <sodipodi:guide
       orientation="0,1"
       position="-8,92.000001"
       id="guide4069" />
    <sodipodi:guide
       orientation="0,1"
       position="104,4"
       id="guide4071" />
    <sodipodi:guide
       orientation="0,1"
       position="-5,8.0000001"
       id="guide4073" />
    <sodipodi:guide
       orientation="1,0"
       position="92,-8.0000001"
       id="guide4075" />
    <sodipodi:guide
       orientation="1,0"
       position="88,-8.0000001"
       id="guide4077" />
    <sodipodi:guide
       orientation="0,1"
       position="-8,84.000001"
       id="guide4074" />
    <sodipodi:guide
       orientation="1,0"
       position="12,-8.0000001"
       id="guide4076" />
    <sodipodi:guide
       orientation="0,1"
       position="-5,12"
       id="guide4078" />
    <sodipodi:guide
       orientation="1,0"
       position="84,-9.0000001"
       id="guide4080" />
    <sodipodi:guide
       position="48,-8.0000001"
       orientation="1,0"
       id="guide4170" />
    <sodipodi:guide
       position="-8,48"
       orientation="0,1"
       id="guide4172" />
  </sodipodi:namedview>
  <metadata
     id="metadata4879">
    <rdf:RDF>
      <cc:Work
         rdf:about="">
        <dc:format>image/svg+xml</dc:format>
        <dc:type
           rdf:resource="http://purl.org/dc/dcmitype/StillImage" />
        <dc:title></dc:title>
      </cc:Work>
    </rdf:RDF>
  </metadata>
  <g
     inkscape:label="Layer 1"
     inkscape:groupmode="layer"
     id="layer1"
     transform="translate(67.857146,-78.50504)">
    <g
       transform="matrix(0,-1,-1,0,373.50506,516.50504)"
       id="g4845"
       style="display:inline">
      <g
         inkscape:export-ydpi="90"
         inkscape:export-xdpi="90"
         inkscape:export-filename="next01.png"
         transform="matrix(-0.9996045,0,0,1,575.94296,-611.00001)"
         id="g4778"
         inkscape:label="Layer 1">
        <rect
           style="color:#000000;display:inline;overflow:visible;visibility:visible;fill:none;stroke:none;stroke-width:4;marker:none;enable-background:accumulate"
           id="rect4782-6"
           width="96.037987"
           height="96"
           x="137.99753"
           y="956.36218" />
        <g
           id="g9380"
           transform="matrix(0.83292063,0,0,0.83292063,21.060549,168.49405)">
          <path
             inkscape:connector-curvature="0"
             id="path4122"
             d="m 198.02148,970.3613 c 6.00266,0 9.97383,2.56252 11.9004,6.2324 1.92656,3.6699 2.10546,8.0754 2.10546,12.2852 l 0,37.1602 -4.00195,0 0,-37.1602 c 0,-4.0482 -0.3217,-7.9022 -1.64648,-10.4258 -1.32479,-2.52357 -3.35551,-4.08985 -8.35743,-4.08985 -5.00191,0 -7.03263,1.56628 -8.35742,4.08985 -1.32478,2.5236 -1.64648,6.3776 -1.64648,10.4258 l 0,15.4824 0,15.4844 c 0,4.2098 -0.1789,8.6153 -2.10547,12.2852 -1.92657,3.6699 -5.89773,6.2304 -11.90039,6.2304 -6.00266,0 -9.97382,-2.5605 -11.90039,-6.2304 -1.92657,-3.6699 -2.10547,-8.0754 -2.10547,-12.2852 l 0,-37.1602 4.00195,0 0,37.1602 c 0,4.0482 0.3217,7.9022 1.64649,10.4258 1.32478,2.5236 3.3555,4.0898 8.35742,4.0898 5.00191,0 7.03264,-1.5662 8.35742,-4.0898 1.32478,-2.5236 1.64648,-6.3776 1.64648,-10.4258 l 0,-15.4844 0,-15.4824 c 0,-4.2098 0.1789,-8.6153 2.10547,-12.2852 1.92657,-3.66988 5.89774,-6.2324 11.90039,-6.2324 z"
             style="color:#000000;font-style:normal;font-variant:normal;font-weight:normal;font-stretch:normal;font-size:medium;line-height:normal;font-family:sans-serif;text-indent:0;text-align:start;text-decoration:none;text-decoration-line:none;text-decoration-style:solid;text-decoration-color:#000000;letter-spacing:normal;word-spacing:normal;text-transform:none;direction:ltr;block-progression:tb;writing-mode:lr-tb;baseline-shift:baseline;text-anchor:start;white-space:normal;clip-rule:nonzero;display:inline;overflow:visible;visibility:visible;opacity:1;isolation:auto;mix-blend-mode:normal;color-interpolation:sRGB;color-interpolation-filters:linearRGB;solid-color:#000000;solid-opacity:1;fill:#808080;fill-opacity:1;fill-rule:nonzero;stroke:none;stroke-width:4.00079107;stroke-linecap:butt;stroke-linejoin:round;stroke-miterlimit:4;stroke-dasharray:none;stroke-dashoffset:0;stroke-opacity:1;marker:none;color-rendering:auto;image-rendering:auto;shape-rendering:auto;text-rendering:auto;enable-background:accumulate" />
          <path
             sodipodi:nodetypes="ccsssccc"
             inkscape:transform-center-y="-0.011096303"
             inkscape:transform-center-x="11.119949"
             inkscape:connector-curvature="0"
             id="path2194-7"
             d="m 174.05569,986.3622 c 0,0 -4.92115,-11.74728 -12.01661,-22.02298 -0.004,0 -0.006,9.8e-4 -0.008,0.004 -0.006,9.7e-4 -0.006,0.004 -0.008,0.006 -0.005,0.002 -0.007,0.004 -0.008,0.006 -0.005,0.002 -0.005,0.002 -0.008,0.004 -7.33765,10.82654 -12.00573,21.98778 -12.00573,21.98778 z"
             style="color:#000000;display:inline;overflow:visible;visibility:visible;fill:#808080;fill-opacity:1;fill-rule:nonzero;stroke:none;stroke-width:3;marker:none;enable-background:accumulate" />
          <path
             style="color:#000000;display:inline;overflow:visible;visibility:visible;fill:#808080;fill-opacity:1;fill-rule:nonzero;stroke:none;stroke-width:3;marker:none;enable-background:accumulate"
             d="m 222.06665,1022.3553 c 0,0 -4.92115,11.7472 -12.01661,22.0229 -0.004,0 -0.006,0 -0.008,0 -0.006,-9e-4 -0.006,0 -0.008,-0.01 -0.005,0 -0.007,0 -0.008,-0.01 -0.005,0 -0.005,0 -0.008,0 -7.33764,-10.8265 -12.00572,-21.9878 -12.00572,-21.9878 z"
             id="path4215"
             inkscape:connector-curvature="0"
             inkscape:transform-center-x="-11.119949"
             inkscape:transform-center-y="-0.011096303"
             sodipodi:nodetypes="ccsssccc" />
        </g>
        <rect
           transform="matrix(0,1,-1,0,0,0)"
           y="-234.03554"
           x="956.36224"
           height="96.037987"
           width="96"
           id="rect4782"
           style="color:#000000;display:inline;overflow:visible;visibility:visible;fill:none;stroke:none;stroke-width:4;marker:none;enable-background:accumulate" />
        <path
           inkscape:connector-curvature="0"
           style="opacity:1;fill:#808080;fill-opacity:1;stroke:none;stroke-width:2;stroke-miterlimit:4;stroke-dasharray:none;stroke-opacity:1"
           d="m 207.39138,1007.2194 a 11.433096,11.428574 0 0 0 11.06046,8.5714 11.433096,11.428574 0 0 0 11.05488,-8.5714 l -22.11534,0 z m 0.006,-5.7143 22.11534,0 a 11.433096,11.428574 0 0 0 -11.06045,-8.57143 11.433096,11.428574 0 0 0 -11.05488,8.57143 z"
           id="path8732" />
        <path
           style="opacity:1;fill:#808080;fill-opacity:1;stroke:none;stroke-width:2;stroke-miterlimit:4;stroke-dasharray:none;stroke-opacity:1"
           d="m 4,77.564453 0,5.714844 5.7148438,0 0,-5.714844 z m 11.427734,0 0,5.714844 22.572266,0 0,-5.714844 z m 42.572266,0 0,5.714844 23,0 0,-5.714844 z m 28,0 0,5.714844 6,0 0,-5.714844 z"
           transform="matrix(0,-1,1.0003957,0,137.99754,1052.3622)"
           id="path9389"
           inkscape:connector-curvature="0"
           sodipodi:nodetypes="cccccccccccccccccccc" />
      </g>
    </g>
  </g>
</svg>
